<svg width="24" height="24" viewBox="0 0 24 24" fill="none" xmlns="http://www.w3.org/2000/svg">
<path d="M16.94 9.00006C19.2187 7.60746 19.3181 6.02665 19.2468 5.37605C19.1381 4.58597 18.7446 3.86279 18.1402 3.3424C17.5359 2.82201 16.7623 2.54025 15.9648 2.55006L15.9082 2.55056C14.4066 2.57536 12.8936 3.59055 12 6.13155C11.1064 3.59085 9.5934 2.57536 8.0918 2.55056L8.0352 2.55006C7.23768 2.54017 6.46401 2.8219 5.85959 3.3423C5.25517 3.86269 4.86162 4.58592 4.7529 5.37605C4.6816 6.02665 4.781 7.60746 7.06 9.00006H3V21.0001H21V9.00006H16.94ZM15.9411 4.55085H15.9645C16.2703 4.538 16.5702 4.63692 16.8084 4.82913C17.0465 5.02133 17.2065 5.29367 17.2585 5.59526C17.3669 6.57726 16.1218 7.84526 13.1628 8.68906C13.668 5.68906 14.9219 4.56745 15.9414 4.55085H15.9411ZM8.0349 4.55085H8.0583C9.0778 4.56745 10.3317 5.68906 10.8366 8.68856C7.8776 7.84426 6.6325 6.57675 6.7409 5.59475C6.79282 5.29306 6.95284 5.02061 7.19105 4.82834C7.42926 4.63606 7.72935 4.53714 8.0352 4.55006L8.0349 4.55085ZM5 19.0001V11.0001H11V19.0001H5ZM19 19.0001H13V11.0001H19V19.0001Z" fill="#FF6C6C"/>
</svg>
